HIERARCHY
ROOT Hips
{
    OFFSET 0.000000 0.000000 0.000000
    CHANNELS 6 Xposition Yposition Zposition Zrotation Xrotation Yrotation
    JOINT Spine
    {
        OFFSET -0.000000 8.079700 0.000000
        CHANNELS 3 Zrotation Xrotation Yrotation
        JOINT Spine1
        {
            OFFSET -0.000000 23.289207 0.000000
            CHANNELS 3 Zrotation Xrotation Yrotation
            JOINT Neck
            {
                OFFSET -0.000000 23.193563 2.108506
                CHANNELS 3 Zrotation Xrotation Yrotation
                JOINT Head
                {
                    OFFSET -0.000000 13.794610 -1.970658
                    CHANNELS 3 Zrotation Xrotation Yrotation
                    End Site
                    {
                        OFFSET -0.000000 24.633232 0.000000
                    }
                }
            }
            JOINT LeftShoulder
            {
                OFFSET 3.964071 21.437269 -0.109506
                CHANNELS 3 Zrotation Xrotation Yrotation
                JOINT LeftArm
                {
                    OFFSET 10.889085 0.000000 0.000000
                    CHANNELS 3 Zrotation Xrotation Yrotation
                    JOINT LeftForeArm
                    {
                        OFFSET 33.323662 0.000000 0.000000
                        CHANNELS 3 Zrotation Xrotation Yrotation
                        JOINT LeftHand
                        {
                            OFFSET 25.127829 0.000000 0.000000
                            CHANNELS 3 Zrotation Xrotation Yrotation
                            End Site
                            {
                                OFFSET 14.779941 0.000000 0.000000
                            }
                        }
                    }
                }
            }
            JOINT RightShoulder
            {
                OFFSET -3.907116 21.437269 -0.109506
                CHANNELS 3 Zrotation Xrotation Yrotation
                JOINT RightArm
                {
                    OFFSET -10.889085 0.000000 0.000000
                    CHANNELS 3 Zrotation Xrotation Yrotation
                    JOINT RightForeArm
                    {
                        OFFSET -33.323662 0.000000 0.000000
                        CHANNELS 3 Zrotation Xrotation Yrotation
                        JOINT RightHand
                        {
                            OFFSET -25.127829 0.000000 0.000000
                            CHANNELS 3 Zrotation Xrotation Yrotation
                            End Site
                            {
                                OFFSET -14.779941 0.000000 0.000000
                            }
                        }
                    }
                }
            }
        }
    }
    JOINT LeftUpLeg
    {
        OFFSET 9.853293 0.000000 0.000000
        CHANNELS 3 Zrotation Xrotation Yrotation
        JOINT LeftLeg
        {
            OFFSET -0.000000 -42.191887 0.000000
            CHANNELS 3 Zrotation Xrotation Yrotation
            JOINT LeftFoot
            {
                OFFSET -0.000000 -39.359688 0.000000
                CHANNELS 3 Zrotation Xrotation Yrotation
                JOINT LeftToeBase
                {
                    OFFSET -0.000000 -6.404640 14.779941
                    CHANNELS 3 Zrotation Xrotation Yrotation
                    End Site
                    {
                        OFFSET -0.000000 0.000000 3.941317
                    }
                }
            }
        }
    }
    JOINT RightUpLeg
    {
        OFFSET -9.853293 0.000000 0.000000
        CHANNELS 3 Zrotation Xrotation Yrotation
        JOINT RightLeg
        {
            OFFSET -0.000000 -42.191887 0.000000
            CHANNELS 3 Zrotation Xrotation Yrotation
            JOINT RightFoot
            {
                OFFSET -0.000000 -39.359688 0.000000
                CHANNELS 3 Zrotation Xrotation Yrotation
                JOINT RightToeBase
                {
                    OFFSET -0.000000 -6.404640 14.779941
                    CHANNELS 3 Zrotation Xrotation Yrotation
                    End Site
                    {
                        OFFSET -0.000000 0.000000 3.941317
                    }
                }
            }
        }
    }
}
MOTION
Frames:    7
Frame Time:    0.008333
2.887404    84.468742    8.270201    -0.222763    -3.417412    179.134079    -4.883890    5.274881    -0.320897    4.446238    -1.608012    -0.483695    1.164356    35.572514    -2.747874    -1.986865    25.696909    -2.462214    -2.805514    13.946404    -1.794730    -41.391605    39.228809    -25.153522    4.376359    2.656750    -19.592501    7.763999    2.949319    -6.821644    -1.756429    12.014006    1.414444    61.020588    43.860870    3.752259    -2.435970    -8.438020    22.535793    0.763022    -7.870801    13.107446    0.916199    -17.815273    -0.052343    0.316016    45.811600    -5.814921    9.136314    -27.846420    23.528267    0.000000    0.000000    0.000000    -19.054113    -33.904808    -2.825488    18.703558    71.287834    -3.851869    -19.731451    -12.049104    -15.910048    0.000000    0.000000    0.000000    
3.004834    84.302185    7.260530    0.116280    -3.357888    179.330688    -4.721724    5.539179    -0.589804    4.436498    -1.808000    -0.748379    0.930216    35.311970    -2.585230    -1.815265    26.015062    -2.350513    -2.828545    13.921732    -1.873986    -41.487110    38.205685    -25.113768    4.487710    2.939579    -19.935869    7.864978    3.262371    -6.774012    -1.604367    12.149919    1.504464    61.135998    43.898254    3.466882    -2.543222    -8.123860    22.566286    1.807271    -7.420921    12.755857    1.600875    -17.262060    0.985589    0.743964    46.282970    -7.272497    9.428948    -28.401918    23.817173    0.000000    0.000000    0.000000    -19.027121    -34.905415    -3.204180    15.834598    69.451149    -2.416823    -19.523281    -12.716192    -15.342730    0.000000    0.000000    0.000000    
3.124161    84.169754    6.265129    0.315164    -3.431532    179.645203    -4.662661    5.746778    -0.872896    4.315323    -2.123609    -1.027111    1.460453    35.435322    -2.670589    -2.272177    25.522257    -2.304908    -2.675852    13.982638    -2.119846    -41.577168    37.333843    -25.079227    4.681785    3.003183    -20.433411    8.354841    3.357540    -6.697465    -1.423641    12.180299    1.814337    61.701252    43.435986    2.607126    -2.485891    -7.632826    22.840464    2.369255    -6.884280    12.160952    2.075839    -16.811234    1.584737    0.945559    46.575306    -7.905632    9.438208    -28.839752    23.599161    0.000000    0.000000    0.000000    -19.296194    -35.875664    -3.235525    14.671677    67.217308    -2.374671    -19.370905    -13.092237    -15.015771    0.000000    0.000000    0.000000    
3.233051    84.064865    5.238661    0.465224    -3.396873    -179.985550    -4.660618    6.068523    -1.153626    4.359160    -2.414269    -1.308977    1.602717    35.635399    -2.787955    -2.476002    24.834949    -2.394817    -2.684270    13.927932    -2.301381    -41.446243    36.912300    -25.128189    4.984998    2.955230    -20.999550    8.620410    3.388545    -6.506171    -1.356453    12.406622    1.746796    61.948883    43.568184    2.258258    -2.707727    -7.435354    22.966055    3.511225    -6.524565    11.946357    2.411707    -16.198093    2.149966    1.365386    46.786480    -8.900285    9.453191    -29.153826    23.592346    0.000000    0.000000    0.000000    -19.611549    -36.703537    -4.040050    12.011951    65.214561    -0.448272    -19.294342    -13.089913    -14.843118    0.000000    0.000000    0.000000    
3.348801    83.971519    4.193283    0.593316    -3.376329    -179.503250    -4.483796    6.424994    -1.605105    4.093524    -2.838245    -1.755510    1.500970    35.783539    -2.646509    -2.409925    24.535561    -2.277019    -2.701633    14.020165    -2.134807    -41.066597    36.610332    -25.367136    5.206133    2.641712    -21.574572    8.813979    3.130421    -6.528655    -1.063384    12.559763    1.946404    62.195400    43.524296    1.688063    -2.694080    -7.094283    23.093914    4.449709    -6.090371    11.801737    2.676356    -15.498879    2.225374    1.441383    46.787868    -9.284087    9.473426    -29.525082    23.512480    0.000000    0.000000    0.000000    -20.088890    -37.323345    -4.357328    11.500425    62.856045    -0.584822    -19.735321    -12.810845    -15.374910    0.000000    0.000000    0.000000    
3.500174    83.906158    3.112328    0.798371    -3.380462    -178.909042    -4.650140    6.547127    -1.770761    4.438217    -2.871841    -1.925642    1.635216    35.415905    -2.908809    -1.915496    24.852983    -2.562767    -2.458479    13.966169    -2.790523    -41.177589    36.111229    -25.544716    5.475226    2.516380    -22.026167    8.685066    3.067542    -6.773816    -0.961764    12.601315    1.601005    62.466614    43.784557    1.020952    -2.615863    -6.946130    23.305126    5.295367    -5.863225    11.855734    3.026997    -14.697033    1.954558    1.236719    46.540405    -9.364408    9.657512    -29.908213    23.546263    0.000000    0.000000    0.000000    -20.535744    -37.779991    -4.657011    11.276521    60.437206    -0.621053    -20.003910    -12.061058    -16.419268    0.000000    0.000000    0.000000    
3.620372    83.873459    2.009151    0.922251    -3.396201    -178.360626    -4.659655    6.532143    -2.188733    4.684895    -2.705532    -2.344172    1.697979    35.246143    -2.884722    -2.506094    24.525299    -2.489110    -2.690121    13.749132    -2.658375    -40.630848    36.212650    -25.935835    5.761431    2.045268    -22.651981    8.853361    2.677304    -6.745451    -1.279880    12.410163    1.863640    63.212547    43.783936    0.212606    -2.480345    -6.640844    23.391542    5.723694    -5.533406    11.963844    3.240064    -13.799947    1.638783    1.058783    46.097202    -9.208474    9.580757    -30.226864    23.401659    0.000000    0.000000    0.000000    -21.107967    -38.129814    -4.674067    11.659461    57.903545    -1.784676    -20.337170    -11.385573    -17.141239    0.000000    0.000000    0.000000    
